<mxfile host="65bd71144e">
    <diagram id="_Vuei6XEnJvG41z0UysF" name="Page-1">
        <mxGraphModel dx="1189" dy="830" grid="0" gridSize="10" guides="1" tooltips="1" connect="1" arrows="1" fold="1" page="0" pageScale="1" pageWidth="850" pageHeight="1100" background="none" math="0" shadow="0">
            <root>
                <mxCell id="0"/>
                <mxCell id="1" parent="0"/>
                <mxCell id="3" value="Airline_Name" style="rounded=0;whiteSpace=wrap;html=1;" parent="1" vertex="1">
                    <mxGeometry x="360" y="50" width="120" height="30" as="geometry"/>
                </mxCell>
                <mxCell id="11" value="Phone_Number" style="rounded=0;whiteSpace=wrap;html=1;" parent="1" vertex="1">
                    <mxGeometry x="480" y="50" width="120" height="30" as="geometry"/>
                </mxCell>
                <mxCell id="12" value="Location" style="rounded=0;whiteSpace=wrap;html=1;" parent="1" vertex="1">
                    <mxGeometry x="720" y="50" width="120" height="30" as="geometry"/>
                </mxCell>
                <mxCell id="13" value="Email" style="rounded=0;whiteSpace=wrap;html=1;" parent="1" vertex="1">
                    <mxGeometry x="600" y="50" width="120" height="30" as="geometry"/>
                </mxCell>
                <mxCell id="17" value="" style="line;strokeWidth=2;html=1;" parent="1" vertex="1">
                    <mxGeometry x="375" y="60" width="90" height="30" as="geometry"/>
                </mxCell>
                <mxCell id="19" value="SN" style="rounded=0;whiteSpace=wrap;html=1;" parent="1" vertex="1">
                    <mxGeometry x="360" y="240" width="120" height="30" as="geometry"/>
                </mxCell>
                <mxCell id="21" value="Miantaiance_time" style="rounded=0;whiteSpace=wrap;html=1;" parent="1" vertex="1">
                    <mxGeometry x="480" y="240" width="120" height="30" as="geometry"/>
                </mxCell>
                <mxCell id="23" value="Aircraft" style="text;html=1;align=center;verticalAlign=middle;resizable=0;points=[];autosize=1;strokeColor=none;fillColor=none;" parent="1" vertex="1">
                    <mxGeometry x="375" y="200" width="60" height="30" as="geometry"/>
                </mxCell>
                <mxCell id="14" value="Airline" style="text;html=1;strokeColor=none;fillColor=none;align=center;verticalAlign=middle;whiteSpace=wrap;rounded=0;arcSize=15;" parent="1" vertex="1">
                    <mxGeometry x="360" y="10" width="100" height="30" as="geometry"/>
                </mxCell>
                <mxCell id="24" value="" style="line;strokeWidth=2;html=1;" vertex="1" parent="1">
                    <mxGeometry x="380" y="260" width="90" height="10" as="geometry"/>
                </mxCell>
                <mxCell id="25" value="screen&amp;nbsp;" style="rounded=0;whiteSpace=wrap;html=1;" vertex="1" parent="1">
                    <mxGeometry x="871" y="440" width="120" height="30" as="geometry"/>
                </mxCell>
                <mxCell id="26" value="wifi" style="rounded=0;whiteSpace=wrap;html=1;" vertex="1" parent="1">
                    <mxGeometry x="751" y="440" width="120" height="30" as="geometry"/>
                </mxCell>
                <mxCell id="27" value="economy_class_capacity" style="rounded=0;whiteSpace=wrap;html=1;" vertex="1" parent="1">
                    <mxGeometry x="600" y="440" width="151" height="30" as="geometry"/>
                </mxCell>
                <mxCell id="28" value="first_class_capacity" style="rounded=0;whiteSpace=wrap;html=1;" vertex="1" parent="1">
                    <mxGeometry x="480" y="440" width="120" height="30" as="geometry"/>
                </mxCell>
                <mxCell id="29" value="model_name" style="rounded=0;whiteSpace=wrap;html=1;" vertex="1" parent="1">
                    <mxGeometry x="360" y="440" width="120" height="30" as="geometry"/>
                </mxCell>
                <mxCell id="30" value="Aircraft_type" style="text;html=1;strokeColor=none;fillColor=none;align=center;verticalAlign=middle;whiteSpace=wrap;rounded=0;" vertex="1" parent="1">
                    <mxGeometry x="380" y="400" width="60" height="30" as="geometry"/>
                </mxCell>
                <mxCell id="32" value="" style="line;strokeWidth=2;html=1;" vertex="1" parent="1">
                    <mxGeometry x="375" y="460" width="90" height="10" as="geometry"/>
                </mxCell>
                <mxCell id="33" value="departure_time" style="rounded=0;whiteSpace=wrap;html=1;" vertex="1" parent="1">
                    <mxGeometry x="960" y="640" width="120" height="30" as="geometry"/>
                </mxCell>
                <mxCell id="34" value="estimated_time" style="rounded=0;whiteSpace=wrap;html=1;" vertex="1" parent="1">
                    <mxGeometry x="840" y="640" width="120" height="30" as="geometry"/>
                </mxCell>
                <mxCell id="35" value="price" style="rounded=0;whiteSpace=wrap;html=1;" vertex="1" parent="1">
                    <mxGeometry x="720" y="640" width="120" height="30" as="geometry"/>
                </mxCell>
                <mxCell id="36" value="Fstatus" style="rounded=0;whiteSpace=wrap;html=1;" vertex="1" parent="1">
                    <mxGeometry x="600" y="640" width="120" height="30" as="geometry"/>
                </mxCell>
                <mxCell id="37" value="arrival_time" style="rounded=0;whiteSpace=wrap;html=1;" vertex="1" parent="1">
                    <mxGeometry x="480" y="640" width="120" height="30" as="geometry"/>
                </mxCell>
                <mxCell id="38" value="FID" style="rounded=0;whiteSpace=wrap;html=1;" vertex="1" parent="1">
                    <mxGeometry x="360" y="640" width="120" height="30" as="geometry"/>
                </mxCell>
                <mxCell id="39" value="Fights" style="text;html=1;strokeColor=none;fillColor=none;align=center;verticalAlign=middle;whiteSpace=wrap;rounded=0;" vertex="1" parent="1">
                    <mxGeometry x="375" y="600" width="60" height="30" as="geometry"/>
                </mxCell>
                <mxCell id="40" value="Airport" style="text;html=1;strokeColor=none;fillColor=none;align=center;verticalAlign=middle;whiteSpace=wrap;rounded=0;" vertex="1" parent="1">
                    <mxGeometry x="375" y="790" width="60" height="30" as="geometry"/>
                </mxCell>
                <mxCell id="41" value="airport_city" style="rounded=0;whiteSpace=wrap;html=1;" vertex="1" parent="1">
                    <mxGeometry x="720" y="830" width="120" height="30" as="geometry"/>
                </mxCell>
                <mxCell id="42" value="airport_name" style="rounded=0;whiteSpace=wrap;html=1;" vertex="1" parent="1">
                    <mxGeometry x="600" y="830" width="120" height="30" as="geometry"/>
                </mxCell>
                <mxCell id="43" value="country" style="rounded=0;whiteSpace=wrap;html=1;" vertex="1" parent="1">
                    <mxGeometry x="482.5" y="830" width="120" height="30" as="geometry"/>
                </mxCell>
                <mxCell id="44" value="AID" style="rounded=0;whiteSpace=wrap;html=1;" vertex="1" parent="1">
                    <mxGeometry x="362.5" y="830" width="120" height="30" as="geometry"/>
                </mxCell>
                <mxCell id="45" value="" style="line;strokeWidth=2;html=1;" vertex="1" parent="1">
                    <mxGeometry x="387.5" y="850" width="70" height="10" as="geometry"/>
                </mxCell>
                <mxCell id="46" value="" style="line;strokeWidth=2;html=1;" vertex="1" parent="1">
                    <mxGeometry x="380" y="660" width="85" height="10" as="geometry"/>
                </mxCell>
                <mxCell id="49" value="passenger" style="text;html=1;strokeColor=none;fillColor=none;align=center;verticalAlign=middle;whiteSpace=wrap;rounded=0;" vertex="1" parent="1">
                    <mxGeometry x="375" y="990" width="60" height="30" as="geometry"/>
                </mxCell>
                <mxCell id="50" value="city" style="rounded=0;whiteSpace=wrap;html=1;" vertex="1" parent="1">
                    <mxGeometry x="1080" y="1040" width="120" height="30" as="geometry"/>
                </mxCell>
                <mxCell id="51" value="gender" style="rounded=0;whiteSpace=wrap;html=1;" vertex="1" parent="1">
                    <mxGeometry x="960" y="1040" width="120" height="30" as="geometry"/>
                </mxCell>
                <mxCell id="52" value="age" style="rounded=0;whiteSpace=wrap;html=1;" vertex="1" parent="1">
                    <mxGeometry x="840" y="1040" width="120" height="30" as="geometry"/>
                </mxCell>
                <mxCell id="53" value="Lname" style="rounded=0;whiteSpace=wrap;html=1;" vertex="1" parent="1">
                    <mxGeometry x="720" y="1040" width="120" height="30" as="geometry"/>
                </mxCell>
                <mxCell id="54" value="Fname" style="rounded=0;whiteSpace=wrap;html=1;" vertex="1" parent="1">
                    <mxGeometry x="600" y="1040" width="120" height="30" as="geometry"/>
                </mxCell>
                <mxCell id="55" value="passport_no" style="rounded=0;whiteSpace=wrap;html=1;" vertex="1" parent="1">
                    <mxGeometry x="480" y="1040" width="120" height="30" as="geometry"/>
                </mxCell>
                <mxCell id="56" value="nationality" style="rounded=0;whiteSpace=wrap;html=1;" vertex="1" parent="1">
                    <mxGeometry x="360" y="1040" width="120" height="30" as="geometry"/>
                </mxCell>
                <mxCell id="57" value="street" style="rounded=0;whiteSpace=wrap;html=1;" vertex="1" parent="1">
                    <mxGeometry x="1200" y="1040" width="120" height="30" as="geometry"/>
                </mxCell>
                <mxCell id="58" value="house_no" style="rounded=0;whiteSpace=wrap;html=1;" vertex="1" parent="1">
                    <mxGeometry x="1320" y="1040" width="120" height="30" as="geometry"/>
                </mxCell>
                <mxCell id="48" value="" style="line;strokeWidth=2;html=1;" vertex="1" parent="1">
                    <mxGeometry x="382.5" y="1060" width="80" height="10" as="geometry"/>
                </mxCell>
                <mxCell id="47" value="" style="line;strokeWidth=2;html=1;" vertex="1" parent="1">
                    <mxGeometry x="500" y="1060" width="80" height="10" as="geometry"/>
                </mxCell>
                <mxCell id="67" value="Phone number" style="text;html=1;strokeColor=none;fillColor=none;align=center;verticalAlign=middle;whiteSpace=wrap;rounded=0;" vertex="1" parent="1">
                    <mxGeometry x="1560" y="1000" width="100" height="30" as="geometry"/>
                </mxCell>
                <mxCell id="68" value="phone_number" style="rounded=0;whiteSpace=wrap;html=1;" vertex="1" parent="1">
                    <mxGeometry x="1800" y="1040" width="120" height="30" as="geometry"/>
                </mxCell>
                <mxCell id="69" value="passport_no" style="rounded=0;whiteSpace=wrap;html=1;" vertex="1" parent="1">
                    <mxGeometry x="1680" y="1040" width="120" height="30" as="geometry"/>
                </mxCell>
                <mxCell id="77" style="edgeStyle=none;html=1;exitX=0.5;exitY=1;exitDx=0;exitDy=0;" edge="1" parent="1" source="70">
                    <mxGeometry relative="1" as="geometry">
                        <mxPoint x="410" y="1070" as="targetPoint"/>
                        <Array as="points">
                            <mxPoint x="1620" y="1120"/>
                            <mxPoint x="410" y="1120"/>
                            <mxPoint x="410" y="1080"/>
                        </Array>
                    </mxGeometry>
                </mxCell>
                <mxCell id="70" value="nationality" style="rounded=0;whiteSpace=wrap;html=1;" vertex="1" parent="1">
                    <mxGeometry x="1560" y="1040" width="120" height="30" as="geometry"/>
                </mxCell>
                <mxCell id="74" value="" style="line;strokeWidth=2;html=1;" vertex="1" parent="1">
                    <mxGeometry x="1815" y="1060" width="90" height="10" as="geometry"/>
                </mxCell>
                <mxCell id="75" value="" style="line;strokeWidth=2;html=1;" vertex="1" parent="1">
                    <mxGeometry x="1695" y="1060" width="90" height="10" as="geometry"/>
                </mxCell>
                <mxCell id="76" value="" style="line;strokeWidth=2;html=1;" vertex="1" parent="1">
                    <mxGeometry x="1590" y="1060" width="60" height="10" as="geometry"/>
                </mxCell>
                <mxCell id="78" value="F.K" style="text;html=1;strokeColor=none;fillColor=none;align=center;verticalAlign=middle;whiteSpace=wrap;rounded=0;" vertex="1" parent="1">
                    <mxGeometry x="1620" y="1070" width="30" height="30" as="geometry"/>
                </mxCell>
                <mxCell id="81" style="edgeStyle=none;html=1;exitX=0.5;exitY=1;exitDx=0;exitDy=0;entryX=0.75;entryY=0;entryDx=0;entryDy=0;" edge="1" parent="1" source="79" target="44">
                    <mxGeometry relative="1" as="geometry">
                        <mxPoint x="450" y="810" as="targetPoint"/>
                        <Array as="points">
                            <mxPoint x="1140" y="730"/>
                            <mxPoint x="450" y="730"/>
                        </Array>
                    </mxGeometry>
                </mxCell>
                <mxCell id="79" value="AID_destination" style="rounded=0;whiteSpace=wrap;html=1;" vertex="1" parent="1">
                    <mxGeometry x="1080" y="640" width="120" height="30" as="geometry"/>
                </mxCell>
                <mxCell id="82" style="edgeStyle=none;html=1;exitX=0.5;exitY=1;exitDx=0;exitDy=0;" edge="1" parent="1" source="80">
                    <mxGeometry relative="1" as="geometry">
                        <mxPoint x="470" y="830" as="targetPoint"/>
                        <Array as="points">
                            <mxPoint x="1260" y="750"/>
                            <mxPoint x="470" y="750"/>
                        </Array>
                    </mxGeometry>
                </mxCell>
                <mxCell id="80" value="AID_origin" style="rounded=0;whiteSpace=wrap;html=1;" vertex="1" parent="1">
                    <mxGeometry x="1200" y="640" width="120" height="30" as="geometry"/>
                </mxCell>
                <mxCell id="83" value="F.K" style="text;html=1;strokeColor=none;fillColor=none;align=center;verticalAlign=middle;whiteSpace=wrap;rounded=0;" vertex="1" parent="1">
                    <mxGeometry x="1200" y="680" width="60" height="30" as="geometry"/>
                </mxCell>
                <mxCell id="84" value="F.K" style="text;html=1;strokeColor=none;fillColor=none;align=center;verticalAlign=middle;whiteSpace=wrap;rounded=0;" vertex="1" parent="1">
                    <mxGeometry x="1090" y="680" width="60" height="30" as="geometry"/>
                </mxCell>
                <mxCell id="85" value="Book" style="text;html=1;strokeColor=none;fillColor=none;align=center;verticalAlign=middle;whiteSpace=wrap;rounded=0;" vertex="1" parent="1">
                    <mxGeometry x="375" y="1190" width="60" height="30" as="geometry"/>
                </mxCell>
                <mxCell id="86" value="fare_class" style="rounded=0;whiteSpace=wrap;html=1;" vertex="1" parent="1">
                    <mxGeometry x="842.5" y="1240" width="120" height="30" as="geometry"/>
                </mxCell>
                <mxCell id="87" value="seat_number" style="rounded=0;whiteSpace=wrap;html=1;" vertex="1" parent="1">
                    <mxGeometry x="722.5" y="1240" width="120" height="30" as="geometry"/>
                </mxCell>
                <mxCell id="96" style="edgeStyle=none;html=1;exitX=0.5;exitY=1;exitDx=0;exitDy=0;entryX=0;entryY=0.25;entryDx=0;entryDy=0;" edge="1" parent="1" source="88" target="38">
                    <mxGeometry relative="1" as="geometry">
                        <mxPoint x="280" y="580" as="targetPoint"/>
                        <Array as="points">
                            <mxPoint x="660" y="1320"/>
                            <mxPoint x="280" y="1320"/>
                            <mxPoint x="280" y="650"/>
                        </Array>
                    </mxGeometry>
                </mxCell>
                <mxCell id="88" value="FID" style="rounded=0;whiteSpace=wrap;html=1;" vertex="1" parent="1">
                    <mxGeometry x="602.5" y="1240" width="120" height="30" as="geometry"/>
                </mxCell>
                <mxCell id="89" value="passport_no" style="rounded=0;whiteSpace=wrap;html=1;" vertex="1" parent="1">
                    <mxGeometry x="482.5" y="1240" width="120" height="30" as="geometry"/>
                </mxCell>
                <mxCell id="94" style="edgeStyle=none;html=1;exitX=0;exitY=0.5;exitDx=0;exitDy=0;" edge="1" parent="1" source="90">
                    <mxGeometry relative="1" as="geometry">
                        <mxPoint x="360" y="1060" as="targetPoint"/>
                        <Array as="points">
                            <mxPoint x="320" y="1256"/>
                            <mxPoint x="320" y="1060"/>
                        </Array>
                    </mxGeometry>
                </mxCell>
                <mxCell id="90" value="nationality" style="rounded=0;whiteSpace=wrap;html=1;" vertex="1" parent="1">
                    <mxGeometry x="362.5" y="1240" width="120" height="30" as="geometry"/>
                </mxCell>
                <mxCell id="91" value="" style="line;strokeWidth=2;html=1;" vertex="1" parent="1">
                    <mxGeometry x="630" y="1260" width="70" height="10" as="geometry"/>
                </mxCell>
                <mxCell id="92" value="" style="line;strokeWidth=2;html=1;" vertex="1" parent="1">
                    <mxGeometry x="502.5" y="1260" width="80" height="10" as="geometry"/>
                </mxCell>
                <mxCell id="93" value="" style="line;strokeWidth=2;html=1;" vertex="1" parent="1">
                    <mxGeometry x="390" y="1260" width="70" height="10" as="geometry"/>
                </mxCell>
                <mxCell id="95" value="F.K" style="text;html=1;strokeColor=none;fillColor=none;align=center;verticalAlign=middle;whiteSpace=wrap;rounded=0;" vertex="1" parent="1">
                    <mxGeometry x="302.5" y="1250" width="60" height="30" as="geometry"/>
                </mxCell>
                <mxCell id="97" value="F.K" style="text;html=1;strokeColor=none;fillColor=none;align=center;verticalAlign=middle;whiteSpace=wrap;rounded=0;" vertex="1" parent="1">
                    <mxGeometry x="600" y="1280" width="60" height="30" as="geometry"/>
                </mxCell>
                <mxCell id="99" style="edgeStyle=none;html=1;exitX=0.5;exitY=0;exitDx=0;exitDy=0;entryX=0.389;entryY=0.667;entryDx=0;entryDy=0;entryPerimeter=0;" edge="1" parent="1" source="98" target="17">
                    <mxGeometry relative="1" as="geometry">
                        <mxPoint x="360" y="120" as="targetPoint"/>
                        <Array as="points">
                            <mxPoint x="1380" y="120"/>
                            <mxPoint x="410" y="120"/>
                        </Array>
                    </mxGeometry>
                </mxCell>
                <mxCell id="98" value="O_Airline_Name" style="rounded=0;whiteSpace=wrap;html=1;" vertex="1" parent="1">
                    <mxGeometry x="1320" y="640" width="120" height="30" as="geometry"/>
                </mxCell>
                <mxCell id="100" value="F.K" style="text;html=1;strokeColor=none;fillColor=none;align=center;verticalAlign=middle;whiteSpace=wrap;rounded=0;" vertex="1" parent="1">
                    <mxGeometry x="1390" y="600" width="40" height="30" as="geometry"/>
                </mxCell>
                <mxCell id="104" style="edgeStyle=none;html=1;exitX=0.5;exitY=0;exitDx=0;exitDy=0;" edge="1" parent="1" source="103">
                    <mxGeometry relative="1" as="geometry">
                        <mxPoint x="390" y="80" as="targetPoint"/>
                        <Array as="points">
                            <mxPoint x="660" y="160"/>
                            <mxPoint x="390" y="160"/>
                        </Array>
                    </mxGeometry>
                </mxCell>
                <mxCell id="103" value="Owns_Airline_Name" style="rounded=0;whiteSpace=wrap;html=1;" vertex="1" parent="1">
                    <mxGeometry x="600" y="240" width="120" height="30" as="geometry"/>
                </mxCell>
                <mxCell id="106" value="F.K" style="text;html=1;strokeColor=none;fillColor=none;align=center;verticalAlign=middle;whiteSpace=wrap;rounded=0;" vertex="1" parent="1">
                    <mxGeometry x="610" y="200" width="60" height="30" as="geometry"/>
                </mxCell>
                <mxCell id="108" style="edgeStyle=none;html=1;exitX=0.5;exitY=0;exitDx=0;exitDy=0;" edge="1" parent="1" source="107">
                    <mxGeometry relative="1" as="geometry">
                        <mxPoint x="403" y="270" as="targetPoint"/>
                        <Array as="points">
                            <mxPoint x="1500" y="320"/>
                            <mxPoint x="403" y="320"/>
                        </Array>
                    </mxGeometry>
                </mxCell>
                <mxCell id="107" value="" style="rounded=0;whiteSpace=wrap;html=1;" vertex="1" parent="1">
                    <mxGeometry x="1440" y="640" width="120" height="30" as="geometry"/>
                </mxCell>
                <mxCell id="109" value="F.K" style="text;html=1;strokeColor=none;fillColor=none;align=center;verticalAlign=middle;whiteSpace=wrap;rounded=0;" vertex="1" parent="1">
                    <mxGeometry x="1500" y="590" width="60" height="30" as="geometry"/>
                </mxCell>
                <mxCell id="111" style="edgeStyle=none;html=1;exitX=0.5;exitY=1;exitDx=0;exitDy=0;entryX=0.906;entryY=-0.133;entryDx=0;entryDy=0;entryPerimeter=0;" edge="1" parent="1" source="110" target="29">
                    <mxGeometry relative="1" as="geometry">
                        <mxPoint x="450" y="400" as="targetPoint"/>
                        <Array as="points">
                            <mxPoint x="780" y="400"/>
                            <mxPoint x="470" y="400"/>
                        </Array>
                    </mxGeometry>
                </mxCell>
                <mxCell id="110" value="A_model_name" style="rounded=0;whiteSpace=wrap;html=1;" vertex="1" parent="1">
                    <mxGeometry x="720" y="240" width="120" height="30" as="geometry"/>
                </mxCell>
                <mxCell id="112" value="F.K" style="text;html=1;strokeColor=none;fillColor=none;align=center;verticalAlign=middle;whiteSpace=wrap;rounded=0;" vertex="1" parent="1">
                    <mxGeometry x="780" y="270" width="29" height="20" as="geometry"/>
                </mxCell>
            </root>
        </mxGraphModel>
    </diagram>
</mxfile>